# xmcd CD database file
#
# Track frame offsets:
#	150
#	13635
#	43700
#	71400
#	82450
#	103025
#	122305
#	151470
#	189265
#	219732
#
# Disc length: 3224 seconds
#
# Revision: 4
# Processed by: cddbd v1.5.1PL0 Copyright (c) Steve Scherf et al.
# Submitted via: CDex 1.51
#
DISCID=840c960a
DTITLE=Gianluigi Trovesi - Gianni Coscia - Radici
DYEAR=1995
DGENRE=Jazz
TTITLE0=Her Cab (Trovesi)
TTITLE1=Variazioni su Ose Shalom (Coscia-Trovesi)
TTITLE2=Tanghesi (Coscia)
TTITLE3=Dance from East n. 1 (Trovesi)
TTITLE4=Tribute to Vissotsky (Coscia-Trovesi)
TTITLE5=Sia maledetta L'acqua (anonimo)
TTITLE6=Culo di pasta (Coscia)
TTITLE7=Antica mazurka (Coscia)
TTITLE8=C'era una strega, c'era una fata (Trovesi)
TTITLE9=Dance from East n. 2 (Trovesi)
EXTD=YEAR: 1995
EXTT0=
EXTT1=
EXTT2=
EXTT3=
EXTT4=
EXTT5=
EXTT6=
EXTT7=
EXTT8=
EXTT9=
PLAYORDER=
